HIERARCHY
ROOT Hips
{
	OFFSET 0.0000 0.0000 0.0000
	CHANNELS 6 Xposition Yposition Zposition Zrotation Xrotation Yrotation
	JOINT Ab
	{
		OFFSET -0.0000 8.1305 -0.0000
		CHANNELS 3 Zrotation Xrotation Yrotation
		JOINT Chest
		{
			OFFSET -0.0000 26.2902 -0.0000
			CHANNELS 3 Zrotation Xrotation Yrotation
			JOINT Neck
			{
				OFFSET -0.0000 26.2902 0.0000
				CHANNELS 3 Zrotation Xrotation Yrotation
				JOINT Head
				{
					OFFSET -0.0000 10.8167 0.0000
					CHANNELS 3 Zrotation Xrotation Yrotation
					End Site
					{
						OFFSET -0.0000 16.7167 0.0000
					}
				}
			}
			JOINT LeftCollar
			{
				OFFSET -0.0000 26.2902 0.0000
				CHANNELS 3 Zrotation Xrotation Yrotation
				JOINT LeftShoulder
				{
					OFFSET 19.6667 -0.0000 0.0000
					CHANNELS 3 Zrotation Xrotation Yrotation
					JOINT LeftElbow
					{
						OFFSET 27.2190 0.0000 0.0000
						CHANNELS 3 Zrotation Xrotation Yrotation
						JOINT LeftWrist
						{
							OFFSET 30.7431 0.0000 0.0000
							CHANNELS 3 Zrotation Xrotation Yrotation
							End Site
							{
								OFFSET 0.0000 -14.7500 0.0000
							}
						}
					}
				}
			}
			JOINT RightCollar
			{
				OFFSET -0.0000 26.2902 0.0000
				CHANNELS 3 Zrotation Xrotation Yrotation
				JOINT RightShoulder
				{
					OFFSET -19.6667 0.0000 0.0000
					CHANNELS 3 Zrotation Xrotation Yrotation
					JOINT RightElbow
					{
						OFFSET -27.2190 0.0000 0.0000
						CHANNELS 3 Zrotation Xrotation Yrotation
						JOINT RightWrist
						{
							OFFSET -30.7431 0.0000 0.0000
							CHANNELS 3 Zrotation Xrotation Yrotation
							End Site
							{
								OFFSET -0.0000 -14.7500 0.0000
							}
						}
					}
				}
			}
		}
	}
	JOINT LeftHip
	{
		OFFSET 11.8000 0.0000 0.0000
		CHANNELS 3 Zrotation Xrotation Yrotation
		JOINT LeftKnee
		{
			OFFSET -0.0000 -39.7832 0.0000
			CHANNELS 3 Zrotation Xrotation Yrotation
			JOINT LeftAnkle
			{
				OFFSET -0.0000 -41.7317 0.0000
				CHANNELS 3 Zrotation Xrotation Yrotation
				End Site
				{
					OFFSET -0.0000 -4.9167 16.7167
				}
			}
		}
	}
	JOINT RightHip
	{
		OFFSET -11.8000 0.0000 0.0000
		CHANNELS 3 Zrotation Xrotation Yrotation
		JOINT RightKnee
		{
			OFFSET -0.0000 -39.7832 0.0000
			CHANNELS 3 Zrotation Xrotation Yrotation
			JOINT RightAnkle
			{
				OFFSET -0.0000 -41.7317 0.0000
				CHANNELS 3 Zrotation Xrotation Yrotation
				End Site
				{
					OFFSET -0.0000 -4.9167 16.7167
				}
			}
		}
	}
}
MOTION
Frames: 21
Frame Time: 0.010000
-12.5038 94.3297 119.5423 355.8740 345.4314 195.6574 357.8685 351.2228 0.2517 359.8470 12.5308 0.4279 340.7026 345.0471 347.2784 12.5795 12.7549 348.4108 339.2057 356.9937 16.2817 336.7442 57.0616 323.5964 16.4744 347.2589 284.5847 99.8328 351.6159 352.3604 25.7092 355.4392 340.1350 33.3148 49.3125 17.3132 321.4453 329.4762 75.8698 252.3130 347.8628 339.2038 349.8731 346.1722 0.8861 358.1254 9.2971 358.4823 346.9632 346.4571 11.8265 349.8012 345.1193 12.6291 12.2826 18.9504 11.1357 346.4117 343.0569 307.2692 
-12.4396 94.2203 118.6705 356.1733 345.9535 195.8396 357.8228 351.3126 0.2837 0.0218 12.3610 0.4433 340.7858 345.2825 347.2273 12.7224 13.1204 348.2519 339.1435 356.9962 16.2676 337.0246 57.1904 323.4764 16.5488 347.1884 284.7387 100.2603 352.0145 352.8244 25.9058 355.4108 340.2994 33.1658 49.5174 16.9750 321.0955 329.1098 75.7474 252.3667 347.8289 339.1316 350.1375 346.0304 0.5132 358.2675 9.4945 358.5997 346.1465 346.3411 11.4200 350.5195 346.0336 12.9490 12.3404 19.1105 10.6665 346.2068 342.5444 307.2640 
-12.3726 94.0792 117.7815 356.4741 346.5226 195.9410 357.7729 351.2784 0.2664 0.1702 12.3793 0.4172 341.1488 345.6940 347.2665 12.7141 13.2647 348.1617 339.1670 357.0321 16.1364 336.9940 57.2542 323.6773 16.6704 347.1038 285.0789 99.9023 351.8240 352.8005 26.0251 355.3979 340.2466 32.9710 49.5397 16.9796 320.9298 329.0519 75.7354 251.8787 348.0447 338.8450 350.5293 346.0072 0.1434 358.3417 9.8915 358.8260 346.3769 346.6599 11.7839 351.2281 346.8321 12.9218 12.4169 19.6178 10.5355 346.0955 341.8462 307.2858 
-12.3422 93.9114 116.9196 356.7892 347.1376 196.1851 357.8700 351.3314 0.1364 0.1372 12.3765 0.2770 341.7385 345.9186 347.3301 12.4805 13.6703 348.0915 339.2311 357.0300 16.0675 337.1369 57.3159 323.6851 16.7398 347.1268 285.2956 100.6306 352.2669 353.0465 26.1608 355.3857 340.2051 32.9461 49.4331 16.8379 320.8960 329.0514 75.8699 251.7282 348.1004 338.6929 350.9091 346.1038 359.5279 358.4838 10.5806 359.3427 346.0019 347.2486 11.5470 351.8151 347.5133 12.5186 12.6903 20.4911 10.6245 345.7999 341.0357 307.1528 
-12.2334 93.6920 116.0930 357.2393 347.5094 196.2354 357.8914 351.1673 0.0736 0.2630 12.1928 0.1935 342.1639 346.3987 347.5418 12.5125 13.9383 348.1654 339.2848 357.0098 16.1092 336.8666 57.3457 324.1908 16.8104 347.1125 285.4279 100.4538 352.2676 353.2154 26.2934 355.3803 340.3056 32.7693 49.5510 16.6897 320.9172 329.0088 75.9667 251.8384 348.5109 338.4853 351.6015 345.8544 359.2220 358.4877 12.0317 359.5966 346.5915 348.1671 12.2720 352.5039 347.5270 11.9240 13.0845 21.9940 10.7774 345.4997 340.0269 307.1107 
-12.1882 93.4535 115.2066 357.5155 348.0428 196.1521 357.9193 351.0852 359.9955 0.1889 12.1003 0.1222 342.7790 346.8926 347.7678 12.4446 14.3263 348.2017 339.3676 357.0132 16.2114 336.7467 57.2218 324.6174 16.7165 347.2481 285.3222 100.5035 352.5331 353.6231 26.4583 355.3512 340.3240 32.5040 49.8407 16.6857 320.8885 329.0259 75.9160 251.5356 348.3807 338.6115 352.2068 345.9418 359.0047 358.4248 13.8911 359.9345 347.7287 347.4299 12.4696 352.9661 347.5759 11.0867 13.5642 23.9509 11.3701 345.2471 338.8198 306.9958 
-12.1857 93.2046 114.3300 357.6410 348.5110 195.9333 357.9612 350.9770 359.8739 359.8841 11.9307 0.0554 343.1521 347.8439 348.0890 13.0564 14.2653 348.2845 339.5812 357.0465 16.4214 336.6541 57.3090 324.9478 16.8088 347.1177 285.3217 100.4301 352.6303 354.1858 26.7199 355.2947 340.4569 32.3080 50.0216 16.4971 321.0487 329.1601 76.0520 251.1583 348.3899 338.3735 352.7292 346.1485 358.7454 358.1569 15.2747 0.3304 348.8456 347.1249 12.5607 353.1383 347.3912 10.2032 14.2574 26.2120 11.7521 345.3198 337.5334 307.1028 
-12.2134 92.9568 113.4305 357.4954 348.9910 195.5781 357.9130 350.9911 359.7375 359.3247 11.6150 0.0001 343.7833 348.7450 348.5049 13.1450 14.3732 348.4816 339.7381 357.0384 16.6819 336.2650 57.1099 325.7888 16.6176 347.3325 285.0768 101.5741 352.8840 354.5746 27.1315 355.2312 340.6697 32.1754 50.2880 16.1498 321.2688 329.3192 76.1747 251.0953 347.9815 338.6473 353.0500 346.8479 358.8157 357.8531 15.8709 359.9751 350.0568 347.0318 13.1234 352.9845 346.9918 8.0664 14.4375 29.3707 13.6211 345.4841 336.2633 307.2146 
-12.2403 92.7140 112.5047 357.2529 349.5867 195.1475 357.6083 351.0037 359.7863 359.0529 11.5287 0.0537 344.4232 349.6648 348.9095 13.1760 14.3540 348.6903 339.7740 356.9873 16.9738 336.2714 56.9807 326.2063 16.4983 347.3557 284.8206 101.6835 353.0628 355.2640 27.4583 355.2204 340.9484 32.2511 50.1666 15.6385 321.7339 329.6085 76.6405 250.9609 347.9929 338.8815 353.3053 347.9071 358.9270 357.5900 16.1895 359.4112 348.9660 346.2144 13.8976 352.7247 346.7511 6.8483 15.0992 32.3118 14.4308 345.7617 335.1859 307.3299 
-12.2453 92.4936 111.6979 356.9791 349.8995 194.5450 357.3269 351.0551 359.7282 358.6417 11.1383 0.0855 345.0368 350.4083 349.2691 13.2227 14.5019 348.8666 339.7717 356.9244 17.3354 336.4310 56.7640 326.5334 16.2892 347.5008 284.4818 101.4662 353.0656 355.5319 27.9154 355.1746 341.1216 32.3279 49.8434 15.1439 322.4775 330.0363 77.3479 250.9084 347.9251 339.2834 353.4493 348.5715 358.9577 357.3276 16.5925 359.5397 349.4407 345.6179 14.1884 352.2683 345.9774 6.2697 16.3259 35.3296 14.4564 346.3002 334.3569 307.7048 
-12.2662 92.2897 110.8531 356.6746 350.2453 193.9041 356.9958 350.9993 359.6930 358.3964 11.0170 0.1385 345.2514 350.8751 349.6179 13.4889 14.7415 349.0785 339.6741 356.8158 17.8926 336.2997 56.1496 327.0064 15.7435 348.0192 283.8580 101.9792 353.0458 355.5729 28.1948 355.1864 341.3172 32.5712 49.4781 14.7043 323.3637 330.4779 78.1488 250.9315 347.7527 340.0744 353.5421 349.3806 358.7960 357.0475 16.8372 0.2793 349.7100 345.2837 14.0804 351.7249 345.1479 5.2939 17.4871 38.5638 14.5544 346.7449 334.0347 308.2202 
-12.2989 92.1018 110.0223 356.4108 350.4923 193.2143 356.6764 350.7626 359.8006 358.3096 11.0833 0.1913 345.1960 351.2130 349.9390 13.8208 14.9866 349.2874 339.3812 356.6610 18.4445 336.8072 55.7098 326.9151 15.1912 348.3865 283.3117 101.1365 352.9983 354.1699 28.3903 355.2095 341.5385 32.7922 49.0130 14.2673 324.2705 330.8656 78.9654 251.1091 347.4625 340.9596 353.6065 350.2237 358.8722 356.8378 16.8655 0.7490 350.3122 345.2044 14.4306 351.1145 344.2236 4.1782 18.5935 41.6444 14.8125 346.8994 334.3202 308.5748 
-12.3244 91.9432 109.1792 356.1969 350.8354 192.5976 356.4227 350.5840 359.8354 358.2479 11.2512 0.2986 345.2706 351.4668 350.1325 13.8756 15.2940 349.3828 339.0725 356.5158 18.6860 336.9809 55.0733 327.2192 14.4738 348.9290 282.5822 101.0133 352.8346 353.4060 28.5019 355.2235 341.5112 33.1349 48.5976 13.9006 325.0759 331.1517 79.6649 251.5134 347.1612 341.8251 353.7227 351.2125 359.1585 356.6979 16.8016 0.6988 351.0344 345.0011 14.5546 350.5903 343.3296 3.1704 19.7374 44.6711 14.6356 347.1254 334.5830 308.9656 
-12.3733 91.8078 108.3243 356.0292 351.1436 191.9769 356.2727 350.3324 359.9476 358.1788 11.4459 0.4584 345.2327 351.7035 350.3651 13.9392 15.6004 349.5458 338.5008 356.3888 18.6762 336.7449 53.8680 328.5019 13.3201 349.9564 281.3709 101.3000 352.6978 352.5253 28.4678 355.2643 341.5275 33.6781 48.3434 13.3387 325.6961 331.3110 80.1882 252.0055 346.8960 342.2003 353.8115 352.2575 359.5617 356.6583 16.6080 0.5519 350.4548 344.2008 14.8179 350.0442 342.4687 2.3542 21.0479 47.3381 14.4921 347.1399 334.2458 308.6768 
-12.4226 91.7099 107.4415 355.8960 351.5623 191.4574 356.2053 350.1523 0.0522 358.1017 11.7267 0.5783 345.2491 351.9941 350.5442 13.8708 15.7360 349.6724 338.2516 356.3514 18.7185 336.4179 53.0850 329.0959 12.4262 350.4465 280.6940 101.5693 352.4712 351.6326 28.3453 355.2690 341.4853 34.3891 48.2532 12.6666 326.0395 331.2845 80.4777 252.3583 346.5406 342.5230 353.9410 353.4911 359.7975 356.5745 16.2571 0.6316 350.8113 344.1061 15.2211 349.5643 341.8324 1.5174 22.2198 49.6561 14.5778 346.3465 334.0784 307.5246 
-12.4830 91.6506 106.5407 355.7904 352.0515 191.0293 356.2505 350.0690 0.1164 357.9280 11.9908 0.6585 345.3972 352.2368 350.7341 13.6429 15.8840 349.8334 338.1185 356.3426 18.7052 335.8935 52.4753 329.8108 11.8217 350.6258 280.0657 101.1283 352.1977 350.9612 28.1876 355.2923 341.3937 35.1675 48.2335 11.9328 326.2759 331.2900 80.7064 252.5523 346.1455 342.3357 354.0692 354.8661 359.9425 356.5232 15.7909 0.7852 350.5859 343.7697 15.0685 349.0864 341.4158 1.1541 23.7086 51.1976 13.1429 345.0406 334.5935 307.4228 
-12.5428 91.6288 105.6636 355.7299 352.4441 190.6356 356.4100 349.9490 0.1572 357.6565 12.1823 0.7199 345.4641 352.5846 350.9319 13.5687 15.9259 349.9892 338.0974 356.3772 18.7330 335.3484 52.0674 330.4030 11.5457 350.5102 279.5862 100.8558 352.3125 351.2443 28.1346 355.2739 341.3543 35.7082 48.2507 11.1871 326.4280 331.2381 80.9596 252.8687 346.0770 342.2113 354.1961 356.1212 0.2477 356.5399 15.2571 1.5491 350.2254 343.6649 14.2196 348.6008 340.8789 0.6045 24.9056 52.5442 11.9832 345.2491 334.1468 307.5879 
-12.6027 91.6500 104.8230 355.6603 352.8080 190.4369 356.5026 349.9375 0.1209 357.4574 12.3022 0.7046 345.7576 352.8048 351.1034 13.1199 16.0448 350.1578 338.1348 356.3537 18.7378 334.8758 51.8888 330.8257 11.4548 350.3237 279.0853 100.8613 352.3880 351.3441 27.9311 355.3130 341.2513 36.5730 48.1425 10.3083 326.6544 331.2804 81.3798 252.8001 346.0378 341.9723 354.2702 357.3370 0.1245 356.4623 14.6679 2.0237 350.1526 343.4831 14.0562 348.0062 340.3700 359.9799 26.1280 53.4471 10.1810 344.9573 334.5854 308.1237 
-12.6866 91.7023 104.0230 355.5430 352.8515 190.0769 356.5931 349.6100 0.1360 357.1970 12.4224 0.7444 345.9955 352.9814 351.3612 12.6299 16.1696 350.4417 338.1807 356.3331 18.8085 334.2675 51.6985 331.3590 11.3837 350.2591 278.5914 100.8447 352.3726 350.9615 27.7409 355.3356 341.2453 37.1878 47.9776 9.5416 327.0632 331.4468 82.0352 252.7529 346.7773 342.2086 354.1887 358.3045 0.0614 356.4845 14.0024 2.4600 349.8652 343.3211 13.8490 347.3083 339.4530 359.3557 26.9174 54.2723 9.8711 344.9613 333.9397 307.8186 
-12.7204 91.7241 103.2340 355.5799 353.0883 190.0011 356.8243 349.6163 0.0030 356.9245 12.4421 0.6156 346.3777 353.1589 351.5273 12.1941 16.3529 350.5963 338.4188 356.3843 18.7568 333.6286 51.7255 331.7904 11.5229 349.8988 277.9353 100.6847 352.5389 351.3854 27.6518 355.3147 341.0353 37.6293 47.7749 8.9357 327.5410 331.5950 82.7257 252.7900 346.8022 342.2196 354.3366 359.3726 359.9125 356.5205 13.4294 2.5974 350.7836 343.2167 13.8414 346.7724 338.8132 358.7220 27.8416 54.6666 8.6386 343.2730 340.5938 296.9563 
-12.7373 91.7369 102.4649 355.6549 353.3488 189.9841 357.0394 349.7602 359.8449 356.7657 12.3552 0.5122 346.7332 353.2371 351.7142 11.6498 16.5832 350.8089 338.6469 356.4322 18.8019 333.1529 51.9352 331.9543 11.6612 349.6588 277.4270 101.7471 352.3877 351.5912 27.5084 355.3014 340.8201 37.9438 47.2657 8.4208 328.3055 332.0085 83.7134 252.8794 346.5616 342.1915 354.5328 0.4251 359.8194 356.5680 12.8727 2.8615 350.5528 343.0804 13.5341 346.3107 338.2675 358.5392 28.7842 54.5101 7.3984 343.2334 340.6629 297.2950 
